<svg
  style="display:none;"
  xmlns="http://www.w3.org/2000/svg"
  viewBox="0 0 841.9 595.3"
>

<symbol id="back" viewBox="0 0 24 12">
<path d="M0.274948 6.68502C0.275228 6.68531 0.275463 6.68565 0.275791 6.68594L5.17442 11.7182C5.54141 12.0952 6.13498 12.0938 6.50028 11.7149C6.86553 11.3361 6.86412 10.7234 6.49714 10.3463L3.2082 6.96774L23.0625 6.96774C23.5803 6.96774 24 6.53448 24 6C24 5.46552 23.5803 5.03226 23.0625 5.03226L3.20825 5.03226L6.49709 1.65368C6.86408 1.27664 6.86548 0.663918 6.50023 0.285095C6.13494 -0.0938247 5.54131 -0.0951303 5.17437 0.281805L0.275745 5.31407C0.275463 5.31436 0.275228 5.31469 0.2749 5.31498C-0.0922724 5.69328 -0.0910993 6.30799 0.274948 6.68502Z"/>
</symbol>

<symbol id="vector" viewBox="0 0 10 12">
  <path d="M8.59013 8.58096C8.56655 8.46653 8.47333 8.41332 8.40533 8.34181C7.91179 7.82059 7.41058 7.30395 6.91595 6.78217C6.70538 6.56075 6.68673 6.32446 6.85289 6.15625C7.01905 5.98805 7.25101 6.00292 7.4561 6.2169C8.24648 7.03658 9.03467 7.85854 9.82067 8.6828C10.062 8.93626 10.0592 9.11362 9.81574 9.36936C9.03632 10.1871 8.25489 11.0026 7.47145 11.8158C7.25539 12.0401 7.04372 12.0572 6.86824 11.8799C6.69276 11.7025 6.71909 11.4731 6.92747 11.2534C7.41607 10.7385 7.90905 10.2281 8.3982 9.71436C8.46674 9.64227 8.55722 9.58677 8.58519 9.47292C8.50787 9.39396 8.41245 9.43115 8.32746 9.43115C5.75121 9.42848 3.17387 9.42714 0.595428 9.42714C0.10683 9.42714 0.00318837 9.31615 0.00318841 8.80695C0.00318865 6.08054 0.00318889 3.35336 0.00318913 0.625427C-0.00296302 0.530019 -0.00020689 0.434213 0.0114165 0.33936C0.0530921 0.128244 0.181411 -0.00391569 0.391986 8.88054e-05C0.60256 0.00409426 0.72704 0.136828 0.765975 0.348517C0.775414 0.433781 0.777432 0.51976 0.772006 0.605405C0.772006 3.18001 0.775843 5.75461 0.767618 8.32636C0.767618 8.56951 0.833969 8.62616 1.0577 8.62501C3.47876 8.617 5.89982 8.62043 8.32088 8.61872C8.4141 8.62329 8.51007 8.65648 8.59013 8.58096Z" fill="none"/>
</symbol>

<symbol id="welldone" viewBox="0 0 50 46">
<path d="M18.25 45.25H38.5C40.3675 45.25 41.965 44.125 42.64 42.505L49.435 26.6425C49.6375 26.125 49.75 25.585 49.75 25V20.5C49.75 18.025 47.725 16 45.25 16H31.0525L33.19 5.7175L33.2575 4.9975C33.2575 4.075 32.875 3.22 32.2675 2.6125L29.8825 0.25L15.055 15.0775C14.245 15.8875 13.75 17.0125 13.75 18.25V40.75C13.75 43.225 15.775 45.25 18.25 45.25ZM18.25 18.25L28.015 8.485L25 20.5H45.25V25L38.5 40.75H18.25V18.25ZM0.25 18.25H9.25V45.25H0.25V18.25Z"/>
</symbol>

</svg>